<?xml version="1.0" encoding="UTF-8" standalone="no"?>
<!DOCTYPE svg PUBLIC "-//W3C//DTD SVG 1.1//EN" "http://www.w3.org/Graphics/SVG/1.1/DTD/svg11.dtd">
<svg width="100%" height="100%" viewBox="0 0 500 500" version="1.1" xmlns="http://www.w3.org/2000/svg" xmlns:xlink="http://www.w3.org/1999/xlink" xml:space="preserve" xmlns:serif="http://www.serif.com/" style="fill-rule:evenodd;clip-rule:evenodd;stroke-linejoin:round;stroke-miterlimit:2;">
    <g id="Star_Medal">
        <path d="M250,119.118L201.684,13.402C200.668,11.177 198.446,9.75 196,9.75L70,9.75C67.873,9.75 65.892,10.832 64.742,12.622C63.592,14.411 63.431,16.663 64.316,18.598L181.316,274.598C182.332,276.823 184.554,278.25 187,278.25L216.25,278.25L216.25,295.582C177.502,309.453 149.75,346.511 149.75,390C149.75,445.329 194.671,490.25 250,490.25C305.329,490.25 350.25,445.329 350.25,390C350.25,346.511 322.498,309.453 283.75,295.582L283.75,278.25L312.896,278.25C315.303,278.288 317.621,276.926 318.684,274.598L435.684,18.598C436.569,16.663 436.408,14.411 435.258,12.622C434.108,10.832 432.127,9.75 430,9.75L304,9.75C301.554,9.75 299.332,11.177 298.316,13.402L250,119.118ZM250,302.25C298.431,302.25 337.75,341.569 337.75,390C337.75,438.431 298.431,477.75 250,477.75C201.569,477.75 162.25,438.431 162.25,390C162.25,341.569 201.569,302.25 250,302.25ZM250,321.083C211.964,321.083 181.083,351.964 181.083,390C181.083,428.036 211.964,458.917 250,458.917C288.036,458.917 318.917,428.036 318.917,390C318.917,351.964 288.036,321.083 250,321.083ZM222.724,439.387L250,419.57L277.276,439.387C269.187,443.867 259.889,446.417 250,446.417C240.111,446.417 230.813,443.867 222.724,439.387ZM194.595,379.317L221.401,398.792L211.013,430.763C200.275,420.49 193.583,406.02 193.583,390C193.583,386.348 193.931,382.776 194.595,379.317ZM278.599,398.792L305.405,379.317C306.069,382.776 306.417,386.348 306.417,390C306.417,406.02 299.725,420.49 288.987,430.763L278.599,398.792ZM250,351.225L257.19,373.354C258.027,375.929 260.426,377.673 263.134,377.673L286.401,377.673C286.401,377.673 267.578,391.349 267.578,391.349C265.387,392.94 264.471,395.761 265.307,398.336L272.497,420.465C272.497,420.465 253.674,406.789 253.674,406.789C251.483,405.197 248.517,405.197 246.326,406.789L227.503,420.465C227.503,420.465 234.693,398.336 234.693,398.336C235.529,395.761 234.613,392.94 232.422,391.349L213.599,377.673C213.599,377.673 236.866,377.673 236.866,377.673C239.574,377.673 241.973,375.929 242.81,373.354L250,351.225ZM242.425,334.089L232.325,365.173L199.334,365.173C207.464,348.629 223.457,336.639 242.425,334.089ZM267.675,365.173L257.575,334.089C276.544,336.638 292.539,348.631 300.666,365.173L267.675,365.173ZM271.25,292.011L271.25,278.25L228.75,278.25L228.75,292.011C235.596,290.53 242.708,289.75 250,289.75C257.292,289.75 264.404,290.53 271.25,292.011ZM133.124,22.25L240.416,265.75L191.015,265.75C191.015,265.75 100.154,66.943 79.728,22.25L133.124,22.25ZM146.784,22.25L191.985,22.25L303.272,265.75L254.076,265.75L146.784,22.25ZM366.876,22.25L287.775,201.77L313,256.964L420.272,22.25L366.876,22.25ZM308.015,22.25L256.872,134.154L280.82,186.553L353.216,22.25L308.015,22.25Z"/>
    </g>
</svg>
